<svg xmlns="http://www.w3.org/2000/svg" width="211.392" height="57.762" viewBox="0 0 211.392 57.762">
  <g id="Group_5" data-name="Group 5" transform="translate(-144.49 -240.127)">
    <g id="Group_3" data-name="Group 3" transform="translate(221.203 240.127)">
      <path id="Path_11" data-name="Path 11" d="M350.333,287.386a23,23,0,0,1-16.844-6.922,23.5,23.5,0,0,1,0-33.381,23.75,23.75,0,0,1,40.576,16.708,22.669,22.669,0,0,1-6.957,16.674A22.916,22.916,0,0,1,350.333,287.386Zm0-39.417a14.567,14.567,0,0,0-10.843,4.637,16.061,16.061,0,0,0,0,22.3,15.034,15.034,0,0,0,21.687.034,16.1,16.1,0,0,0,0-22.334A14.568,14.568,0,0,0,350.333,247.97Z" transform="translate(-326.533 -240.127)" fill="#fff"/>
      <path id="Path_12" data-name="Path 12" d="M458.495,301.763h-8.252v-34.1h7.57v3a12.848,12.848,0,0,1,9.275-4.16,13.261,13.261,0,0,1,7.194,2.08,12.548,12.548,0,0,1,4.876,5.558q1.363,3.137,1.364,9.206v18.413H472.27V284.876q0-10.937-6.82-10.938a6.34,6.34,0,0,0-3.68,1.2,6.711,6.711,0,0,0-2.466,3.043,22.883,22.883,0,0,0-.81,7.315Z" transform="translate(-398.111 -255.389)" fill="#fff"/>
      <path id="Path_13" data-name="Path 13" d="M544.662,287.718H536.41V242.231h8.252Z" transform="translate(-447.967 -241.344)" fill="#fff"/>
      <path id="Path_14" data-name="Path 14" d="M578.923,314.743h-8.8l6.274-14.594-12.48-30.893h9.343l7.706,21.891,8.251-21.891h9.343Z" transform="translate(-463.884 -256.981)" fill="#fff"/>
    </g>
    <g id="Group_4" data-name="Group 4" transform="translate(144.49 241.014)">
      <path id="Path_15" data-name="Path 15" d="M172.565,254.038l3.773-6.536,3.043-5.271H168.563v28.915q0,9.615-7.842,9.616t-7.843-9.616V242.231H144.49v28.915a21.062,21.062,0,0,0,1.568,8.866,14.437,14.437,0,0,0,5.9,6.206,17.107,17.107,0,0,0,8.831,2.387,16.132,16.132,0,0,0,11.491-4.4q4.671-4.4,4.671-13.06V254.038Z" transform="translate(-144.49 -242.231)" fill="#fff"/>
      <path id="Path_16" data-name="Path 16" d="M255.247,245.914a13.081,13.081,0,0,0-6.206-3.273,42.936,42.936,0,0,0-7.16-.409H226.4l3.044,5.271,3.773,6.536h-4.386v17.108c0,6.923-1.885,12.486-5.6,16.572H238.88V270.4h2.864q6.887,0,9.684-1.091a11.6,11.6,0,0,0,5.8-5.114,15.611,15.611,0,0,0,2.251-8.184A13.214,13.214,0,0,0,255.247,245.914Zm-13.707,16.64h-2.66v-12.48h3q4.977,0,7.092,1.379t2.114,4.62Q251.087,262.554,241.54,262.553Z" transform="translate(-190.052 -242.231)" fill="#fff"/>
    </g>
  </g>
</svg>
