<svg xmlns="http://www.w3.org/2000/svg" width="76.55" height="72.904" viewBox="0 0 76.55 72.904">
  <path id="icons8_crowdfunding_1" d="M19.226,2a7.29,7.29,0,1,0,0,14.581,6.374,6.374,0,0,0,.911-.114L23.1,20.454a25.377,25.377,0,0,0-7.518,18c0,.655.071,1.3.114,1.937l-2.05.456a7.269,7.269,0,1,0,1.595,7.063l2.05-.456a25.477,25.477,0,0,0,7.29,10.366L23.1,60.323h-.228A7.447,7.447,0,1,0,29.25,64.2L30.845,61.8a25.293,25.293,0,0,0,26.77-3.987l5.468,4.671a7.311,7.311,0,1,0,7.176-5.81,7.431,7.431,0,0,0-2.392.456L62.513,52.35a25.435,25.435,0,0,0-1.025-29.162l6.949-6.835a7.027,7.027,0,0,0,1.823.228,7.29,7.29,0,1,0-7.29-7.29,7.022,7.022,0,0,0,.228,1.823l-6.835,6.949A25.192,25.192,0,0,0,41.1,12.936a25.507,25.507,0,0,0-12.189,3.076l-2.962-3.873A7.309,7.309,0,0,0,19.226,2ZM39.161,20.226h4.784v4.215c1.879.37,6.422,1.922,6.607,8.885H44.97c0-1.538-.285-4.557-3.417-4.557a3.082,3.082,0,0,0-3.3,3.3c0,5.454,12.3,3.631,12.3,13.1,0,1.068-.143,5.966-6.607,7.4v4.1H39.161V52.691c-7.319-1.225-7.518-7.4-7.518-8.885h5.582c0,.911.043,4.67,4.1,4.67a3.346,3.346,0,0,0,3.645-3.3c0-6.322-12.3-3.147-12.3-13.1,0-5.5,4.3-7.063,6.493-7.518Z" transform="translate(-1 -2)" fill="#fff"/>
</svg>
