<svg xmlns="http://www.w3.org/2000/svg" width="72.711" height="65.452" viewBox="0 0 72.711 65.452">
  <path id="icons8_mark_view_as_non_hidden_1" d="M9.3,3c-3.679.014-7.329,3.636-7.272,7.272V61.18A7.753,7.753,0,0,0,9.3,68.452c18.252-.014,39.047,0,58.165,0,3.608,0,7.3-3.665,7.272-7.272-.071-16.207-.014-33.252,0-50.907A7.73,7.73,0,0,0,67.462,3Zm0,14.545H67.462c.043,14.275.256,43.578,0,43.635-.057.014-58.165,0-58.165,0ZM38.13,24.9a22.578,22.578,0,0,0-3.11.2h-.085c-.043.014-.085.014-.128.028h-.085l-.043.014h-.014l-.028.014h-.128l-.014.014-.1.014h-.014l-.128.028h-.1l-.028.014H34.1l-.057.014h-.057v.014a25.055,25.055,0,0,0-2.571.6l-.057.014-.071.028H31.27a1.632,1.632,0,0,0-.241.085H31L30.929,26l-.028.014h-.043l-.028.028-.057.014-.028.014h-.028l-.085.028a.984.984,0,0,0-.114.043,22.9,22.9,0,0,0-10.824,7.727l-.057.085-.057.057a22.793,22.793,0,0,0-3.011,5.355,21.646,21.646,0,0,0,1.222,2.6l.043.085c.014.028.043.057.057.085v.014l.014.014.028.057.057.085v.014l.028.043.014.028h.014v.028l.028.029v.028l.028.028.028.043v.014l.057.085v.015l.028.028.014.028v.014h.014a22.855,22.855,0,0,0,2.841,3.778l.028.029.028.043h.014l.071.071.028.043.028.014v.014l.028.014.028.029.014.028.028.014.028.043.071.071H21.5l.043.057.028.014V47l.057.071c.043.014.057.043.085.071l.085.085v.014l.028.014.028.043.057.028.028.043.028.028v.014h.014a23.081,23.081,0,0,0,5.3,3.793v.014h.014l.085.028.028.028.028.015.043.014.114.057.014.014h.014v.014l.057.014.028.014h.014l.014.014.085.043.085.043h.014l.014.014.085.043h.028a22.927,22.927,0,0,0,10.028,2.045,24.256,24.256,0,0,0,9.034-1.52h.043l.014-.014h.014l.043-.014.014-.014.028-.014h.015a.2.2,0,0,1,.085-.028l.085-.043h.028l.085-.043v-.014a.2.2,0,0,0,.085-.028l.014-.014h.014l.028-.014h.029l.028-.014.043-.028.043-.014h.014l.043-.014v-.014a23.744,23.744,0,0,0,6.832-4.588h.014l.029-.043.057-.043.028-.028.014-.028.057-.057h.014a.241.241,0,0,1,.057-.071l.014-.014.043-.028.014-.014v-.014h.014c.028-.028.043-.057.071-.085l.085-.085.043-.028v-.014l.1-.1v-.014H55.4l.028-.043.029-.014.057-.057v-.014l.113-.114.014-.028.028-.014.015-.014v-.014l.014-.014a22.767,22.767,0,0,0,2.216-2.841l.171-.256.028-.028v-.014l.014-.014.014-.028V43l.028-.014.015-.028v-.014l.014-.014.014-.028.028-.029v-.014l.043-.085H58.3v-.014l.043-.043V42.7l.014-.014v-.028l.014-.015L58.4,42.6l.015-.014v-.028l.028-.028.014-.028.014-.014c.014-.028.028-.043.043-.071l.043-.085A20.469,20.469,0,0,0,60,39.362a21.516,21.516,0,0,0-2.316-4.332l-.085-.142-.071-.085-.057-.085-.071-.085-.085-.142a23.42,23.42,0,0,0-11.363-8.31l-.114-.028-.128-.057-.071-.014-.241-.071-.2-.071-.3-.1A24.9,24.9,0,0,0,41.98,25.2l-.213-.043H41.7l-.171-.028L41.3,25.1l-.156-.028h-.071l-.156-.028h-.1A23.746,23.746,0,0,0,38.13,24.9Zm-.113,3.608h.554c.455.028.909.057,1.364.128h.071l.014.014.043.014h.057l.028.014h.1l.014.014h.057a11.158,11.158,0,0,1,2.7.895l.014.014.043.014.014.014.043.014.028.014.014.014.057.029.071.028.014.014.043.014.014.014a10.9,10.9,0,0,1,5.568,7.5V37.3l.028.057v.014l.014.071v.085l.014.028V37.6l.014.028v.029l.014.028v.028l.014.057V37.9l.014.028V38l.014.043v.014l.014.057v.057l.015.028v.128c.028.341.057.682.057,1.037A9.664,9.664,0,0,1,49.1,40.47v.057l-.015.028v.114h-.014l-.014.071V40.8l-.014.028v.128l-.028.114v.014L49,41.138v.014l-.014.071v.071l-.014.028a10.858,10.858,0,0,1-.767,2.472l-.014.043v.014l-.015.028-.028.028-.014.028v.028l-.014.028-.014.014-.028.057-.014.057-.028.014-.014.043v.028l-.028.028-.043.085v.028l-.028.028L47.9,44.4l-.014.043a11.469,11.469,0,0,1-1.846,2.514h-.014l-.085.085-.028.043L45.9,47.1l-.043.028-.014.014-.028.014-.028.043-.043.057-.043.014-.014.028-.029.014-.014.028-.028.028h-.028l-.028.043v.015l-.043.043A11.886,11.886,0,0,1,42.9,49.191l-.057.014-.057.028v.015h-.057l-.015.014-.043.028-.014.014h-.043l-.113.057a10.942,10.942,0,0,1-4.148.852h-.142a11.069,11.069,0,0,1-4.162-.852L34,49.334l-.071-.028-.128-.057-.142-.057a11.377,11.377,0,0,1-2.585-1.718l-.1-.1-.085-.071-.085-.1-.1-.071-.071-.085-.1-.085A10.969,10.969,0,0,1,28.7,44.447l-.057-.1-.057-.114-.057-.1-.057-.128-.057-.1-.057-.113a12.469,12.469,0,0,1-.767-2.472v-.028l-.028-.142-.014-.142-.014-.113-.028-.128-.014-.156-.014-.142a9.646,9.646,0,0,1-.057-1.108,8.305,8.305,0,0,1,.057-1.037v-.156l.014-.043v-.014l.014-.057v-.1l.014-.028V37.9l.014-.029v-.1l.014-.057.014-.028v-.128l.028-.057v-.057l.014-.071.014-.014v-.085a10.979,10.979,0,0,1,5.568-7.5l.014-.014.057-.014.014-.014.071-.028.057-.029.015-.014.043-.014.014-.014.057-.028.014-.014a11.473,11.473,0,0,1,2.713-.895h.057v-.014h.114l.014-.014h.071l.043-.014.014-.014h.071C37.094,28.567,37.548,28.539,38.017,28.51Zm.27,3.622a3.468,3.468,0,0,0-.384.014,7.023,7.023,0,0,0-3.011.838h-.014L34.835,33l-.043.028-.029.028h-.028l-.014.014h-.014a7.241,7.241,0,0,0-3.522,4.915L31.171,38l-.014.028v.057l-.014.043v.1h-.015c-.014.057,0,.1-.014.156H31.1V38.5l-.014.028v.156l-.014.043v.142l-.014.028v.057c0,.043-.014.085-.014.128V39.7a.276.276,0,0,1,.014.113v.014l.014.014v.171l.014.014v.142c0,.028.014.043.014.057v.1c0,.014.014.028.014.057h.014a.344.344,0,0,0,.015.128V40.6a.087.087,0,0,1,.014.057v.014a8.2,8.2,0,0,0,.511,1.648.421.421,0,0,1,.057.114v.014l.043.043v.057h.014l.014.028v.014l.014.014h.015v.043l.014.015v.014h.014l.014.028v.014h.014v.043a7.54,7.54,0,0,0,1.236,1.662l.014.028v.014h.014l.028.015.015.014V44.5l.028.028h.014l.014.014.014.028.057.057.028.014h.014l.014.028v.014h.014l.014.015h.015v.014l.014.014v.014h.028l.014.014A6.82,6.82,0,0,0,35.2,45.91h.029v.014l.014.014h.028v.014h.043l.014.014h.014l.014.014.028.014.014.014h.028c.014.014.014,0,.029.014a7.544,7.544,0,0,0,2.784.568h.085a7.471,7.471,0,0,0,2.77-.568c.014-.014.028,0,.043-.014h.014L41.185,46l.028-.028h.028l.014-.014H41.3l.028-.028.028-.014h.015A7.078,7.078,0,0,0,43.1,44.76l.028-.014v-.014l.028-.028h.014l.029-.029.014-.028h.028v-.014l.071-.057v-.028l.028-.014h.014l.014-.014V44.5l.028-.014v-.014h.015v-.015h.014v-.014l.028-.028a7.064,7.064,0,0,0,1.221-1.662l.014-.028.028-.028v-.028l.014-.014v-.029l.028-.014V42.6l.015-.014v-.043h.014c0-.028.014-.028.028-.057l.014-.028v-.028a.432.432,0,0,0,.057-.114,6.712,6.712,0,0,0,.511-1.648v-.014a.086.086,0,0,0,.014-.057l.014-.043v-.028l.014-.014a.427.427,0,0,1,.015-.128v-.1l.014-.043v-.085a.087.087,0,0,0,.014-.057v-.014l.014-.028v-.142l.014-.028v-.2a4.385,4.385,0,0,0,0-.611v-.185l-.028-.284-.028-.227-.015-.156-.014-.057-.028-.085v-.1a7.3,7.3,0,0,0-3.721-5.014l-.043-.028-.1-.043a7.253,7.253,0,0,0-3.068-.767Z" transform="translate(-2.023 -3)" fill="#fff" fill-rule="evenodd"/>
</svg>
