<svg xmlns="http://www.w3.org/2000/svg" width="80.244" height="68.542" viewBox="0 0 80.244 68.542">
  <path id="icons8_credit_control" d="M10.359,9A8.368,8.368,0,0,0,2,17.359V54.137A8.368,8.368,0,0,0,10.359,62.5H35.435l.669,1c.334.5,10.03,14.043,22.735,14.043S81.24,64,81.574,63.5l.669-1-.669-1A38.386,38.386,0,0,0,78.2,57.471a8.349,8.349,0,0,0,.7-3.334V17.359A8.368,8.368,0,0,0,70.542,9ZM5.343,20.7H75.557v8.359H5.343ZM13.7,34.076H40.45V37.42H13.7ZM58.839,50.794c9.195,0,16.885,8.693,19.225,11.7-2.34,3.009-10.03,11.7-19.225,11.7S42.122,65.5,39.614,62.5C41.955,59.487,49.645,50.794,58.839,50.794Zm0,1.672A10.03,10.03,0,1,0,68.87,62.5,10.06,10.06,0,0,0,58.839,52.465Zm0,3.343A6.687,6.687,0,1,1,52.152,62.5,6.707,6.707,0,0,1,58.839,55.809Zm0,3.343A3.343,3.343,0,1,0,62.183,62.5,3.343,3.343,0,0,0,58.839,59.152Z" transform="translate(-2 -9)" fill="#fff"/>
</svg>
