<svg xmlns="http://www.w3.org/2000/svg" width="72.711" height="72.711" viewBox="0 0 72.711 72.711">
  <path id="icons8_rocket" d="M75.711,3.021S48.485,2.956,27.259,24.183a23.375,23.375,0,0,0-2.606,3.151c-3.763-.3-9.524-.2-12.473,2.748C5.3,36.965,3,48.442,3,48.442l15.162-2.168v5.2l9.1,9.1h5.2L30.291,75.733s11.477-2.3,18.36-9.18C51.6,63.6,51.7,57.843,51.4,54.08a23.374,23.374,0,0,0,3.151-2.606C75.776,30.247,75.711,3.021,75.711,3.021ZM51.518,21.15a6.065,6.065,0,1,1-6.065,6.065A6.063,6.063,0,0,1,51.518,21.15ZM15.734,54.494a6.885,6.885,0,0,0-3.145,1.783C8.446,60.419,9.106,69.621,9.106,69.621s9.141.714,13.338-3.483a6.9,6.9,0,0,0,1.783-3.151L22.841,61.6a3.812,3.812,0,0,1-.4.593c-2.957,2.957-7.391,1.48-7.391,1.48s-1.479-4.435,1.481-7.391a4.149,4.149,0,0,1,.586-.4Z" transform="translate(-3 -3.021)" fill="#fff"/>
</svg>
