<svg xmlns="http://www.w3.org/2000/svg" width="71" height="71" viewBox="0 0 71 71">
  <g id="Group_29" data-name="Group 29" transform="translate(-1572 -8594)">
    <g id="Group_27" data-name="Group 27">
      <rect id="Rectangle_13" data-name="Rectangle 13" width="71" height="71" rx="13" transform="translate(1572 8594)" fill="#fff" opacity="0.48"/>
    </g>
    <path id="icons8_instagram_4" d="M11.013,3A8.021,8.021,0,0,0,3,11.013v11.1a8.021,8.021,0,0,0,8.013,8.013h11.1a8.021,8.021,0,0,0,8.013-8.013v-11.1A8.021,8.021,0,0,0,22.109,3ZM23.958,7.931a1.233,1.233,0,1,1-1.233,1.233A1.236,1.236,0,0,1,23.958,7.931Zm-7.4,1.849a6.78,6.78,0,1,1-6.78,6.78A6.785,6.785,0,0,1,16.561,9.78Zm0,1.233a5.548,5.548,0,1,0,5.548,5.548A5.556,5.556,0,0,0,16.561,11.013Z" transform="translate(1593.053 8615.696)" fill="#fff"/>
  </g>
</svg>
