<svg xmlns="http://www.w3.org/2000/svg" width="71" height="71" viewBox="0 0 71 71">
  <g id="Group_28" data-name="Group 28" transform="translate(-1457 -8594)">
    <g id="Group_26" data-name="Group 26">
      <rect id="Rectangle_12" data-name="Rectangle 12" width="71" height="71" rx="13" transform="translate(1457 8594)" fill="#fff" opacity="0.48"/>
    </g>
    <path id="icons8_facebook_3" d="M26.807,4H7.082A3.083,3.083,0,0,0,4,7.082V26.807a3.083,3.083,0,0,0,3.082,3.082H26.807a3.083,3.083,0,0,0,3.082-3.082V7.082A3.083,3.083,0,0,0,26.807,4Zm-2.466,9.246H23.109c-1.319,0-1.849.308-1.849,1.233v1.849h3.082l-.616,3.082H21.259v9.246H18.177V19.41H15.712V16.328h2.466V14.479c0-2.466,1.233-4.315,3.7-4.315a3.8,3.8,0,0,1,2.466.616Z" transform="translate(1475 8614.696)" fill="#fff"/>
  </g>
</svg>
